<?xml version="1.0" ?><svg xmlns="http://www.w3.org/2000/svg" width="128" height="128" viewBox="0 0 128 128"><g><path d="M15.253,84.265a3.715,3.715,0,1,0-3.714-3.714A3.718,3.718,0,0,0,15.253,84.265Zm0-6.429a2.715,2.715,0,1,1-2.714,2.715A2.718,2.718,0,0,1,15.253,77.836Z"/><path d="M111.811,47.739a.5.5,0,0,0-.2-.327.5.5,0,0,0-.371-.091l-16.1,2.505V43.833a16.165,16.165,0,0,0-6.525-13.056l.79-5.979a7.5,7.5,0,0,0-6.45-8.41l-30.109-3.97a7.489,7.489,0,0,0-8.412,6.44l-.337,2.53a84.059,84.059,0,0,0-9.873,1.3,7.888,7.888,0,0,0-8.884-4.923,40.082,40.082,0,0,0-6.7,1.966A8,8,0,0,0,14,29.458l.254.841c-.112.075-.237.143-.348.218a16.009,16.009,0,0,0-1.694,1.325A16.226,16.226,0,0,0,6.8,43.983V81.574a9.35,9.35,0,0,0,9.341,9.339h55l3.783,24.312a.5.5,0,0,0,.494.423.509.509,0,0,0,.077-.006l45.277-7.045a.5.5,0,0,0,.418-.571ZM45.427,18.989a6.491,6.491,0,0,1,7.289-5.58l30.111,3.97a6.5,6.5,0,0,1,5.589,7.289l-.724,5.475C77.4,23.458,60.9,20.333,45.118,21.314ZM14.959,29.167A6.992,6.992,0,0,1,19,20.659a39.073,39.073,0,0,1,6.537-1.916,6.89,6.89,0,0,1,7.694,4.149,66.937,66.937,0,0,0-8.814,2.444s-.01,0-.015,0a47.592,47.592,0,0,0-9.27,4.412Zm-.487,2.18q1.08-.732,2.26-1.413c.1-.06.215-.114.319-.173.68-.385,1.376-.762,2.1-1.122.2-.1.414-.19.618-.288.646-.309,1.3-.613,1.98-.9.257-.109.526-.209.788-.315q.755-.306,1.534-.593V89.909h-7.93a8.349,8.349,0,0,1-8.34-8.34V43.984a15.253,15.253,0,0,1,5.055-11.375A14.993,14.993,0,0,1,14.472,31.347Zm10.6,58.566V26.171a66.911,66.911,0,0,1,8.972-2.43c.008,0,.015,0,.023,0l.006,0c18.559-3.712,40.791-.9,53.341,7.415.138.092.27.191.4.287l.012.009a15.16,15.16,0,0,1,6.31,12.387v6.149L77.6,52.556A21.948,21.948,0,1,0,55.972,78.224a21.69,21.69,0,0,0,12.577-3.99l2.439,15.679ZM72.66,53.325a17.012,17.012,0,1,0-5,15.178l.72,4.631a20.7,20.7,0,0,1-12.4,4.09A20.956,20.956,0,1,1,76.612,52.71ZM65.5,51.441a4.568,4.568,0,0,0-4.475-3.072,5.955,5.955,0,0,0-5.05,3.186,5.948,5.948,0,0,0-5.042-3.185l-.105,0a4.55,4.55,0,0,0-4.387,3.093c-1.658,5.275,2.291,7.883,6.111,10.405,1.053.7,2.142,1.415,3.111,2.185a.5.5,0,0,0,.623,0c.967-.77,2.057-1.49,3.11-2.185,2.682-1.771,5.421-3.589,6.241-6.346L67.469,67.3a15.938,15.938,0,1,1,4.2-13.816l-5.71.888a.452.452,0,0,0-.113.042A7.387,7.387,0,0,0,65.5,51.441Zm-6.655,9.591c-.962.634-1.953,1.289-2.871,1.994-.918-.705-1.909-1.36-2.871-1.994-3.831-2.53-7.14-4.715-5.715-9.251a3.525,3.525,0,0,1,3.438-2.413h.087A5.015,5.015,0,0,1,55.5,52.992a.5.5,0,0,0,.476.35h0a.5.5,0,0,0,.477-.349,5.017,5.017,0,0,1,4.593-3.624,3.532,3.532,0,0,1,3.509,2.392C65.983,56.317,62.675,58.5,58.844,61.032Zm16.994,53.546L69.406,73.24h0l-2.8-17.961,5.721-.89h0l38.564-6,9.228,59.3Z"/><path d="M109.109,50.837a.5.5,0,0,0-.372-.09L69.389,56.87a.5.5,0,0,0-.417.571L76.1,103.224a.5.5,0,0,0,.494.423.487.487,0,0,0,.076-.006l39.349-6.123a.5.5,0,0,0,.417-.571l-7.124-45.783A.5.5,0,0,0,109.109,50.837Zm-32.1,51.739-6.97-44.795,38.36-5.969,6.97,44.8Z"/><path d="M104.469,18.292h1.206v1.2a.5.5,0,0,0,1,0v-1.2h1.206a.5.5,0,0,0,0-1h-1.206V16.086a.5.5,0,0,0-1,0v1.206h-1.206a.5.5,0,0,0,0,1Z"/><path d="M101.235,28.408a1.949,1.949,0,1,0-1.949-1.949A1.951,1.951,0,0,0,101.235,28.408Zm0-2.9a.949.949,0,1,1-.949.949A.95.95,0,0,1,101.235,25.51Z"/><path d="M21.077,100.079H19.872V98.873a.5.5,0,0,0-1,0v1.206H17.666a.5.5,0,1,0,0,1h1.206v1.206a.5.5,0,0,0,1,0v-1.206h1.205a.5.5,0,0,0,0-1Z"/><path d="M26.587,106.566a1.949,1.949,0,1,0,1.949,1.949A1.951,1.951,0,0,0,26.587,106.566Zm0,2.9a.949.949,0,1,1,.949-.949A.95.95,0,0,1,26.587,109.464Z"/><path d="M97.064,65.146a8.437,8.437,0,0,0-6.495,5.97A8.424,8.424,0,0,0,82.58,67.4a6.312,6.312,0,0,0-5.56,5.246c-1.174,7.768,4.994,10.591,10.959,13.322,1.67.764,3.4,1.554,4.967,2.448a.5.5,0,0,0,.615-.095c1.224-1.329,2.629-2.607,3.988-3.843,4.854-4.413,9.872-8.977,6.384-16.04A6.3,6.3,0,0,0,97.064,65.146Zm-.188,18.592C95.6,84.9,94.281,86.1,93.1,87.353c-1.512-.835-3.131-1.576-4.7-2.295-5.887-2.694-11.448-5.239-10.39-12.242a5.342,5.342,0,0,1,4.709-4.425,6.445,6.445,0,0,1,.865-.057,7.566,7.566,0,0,1,6.752,4.354.5.5,0,0,0,.942-.146,7.509,7.509,0,0,1,5.964-6.411,5.324,5.324,0,0,1,5.808,2.769C106.191,75.268,101.666,79.382,96.876,83.738Z"/></g></svg>